<?xml version="1.0" encoding="UTF-8"?>
<svg version="1.1" xmlns="http://www.w3.org/2000/svg" width="884" height="255">
<path d="M0 0 C291.72 0 583.44 0 884 0 C884 84.15 884 168.3 884 255 C592.28 255 300.56 255 0 255 C0 170.85 0 86.7 0 0 Z " fill="#FCFDFD" transform="translate(0,0)"/>
<path d="M0 0 C0.33 0 0.66 0 1 0 C1.89220159 22.63548466 -7.74071108 38.23023591 -22 55 C-22.79792969 55.93972656 -23.59585937 56.87945312 -24.41796875 57.84765625 C-28.94780257 63.01681257 -33.71580931 67.61662916 -39 72 C-39.92941406 72.7940625 -40.85882813 73.588125 -41.81640625 74.40625 C-47.96850748 79.64394382 -54.24096476 84.56052115 -61 89 C-61.5347998 89.35497559 -62.06959961 89.70995117 -62.62060547 90.07568359 C-82.20576882 102.99588201 -103.04412067 112.82639383 -125 121 C-125.80211914 121.30663574 -126.60423828 121.61327148 -127.43066406 121.92919922 C-139.93392753 126.67737776 -152.77326624 129.20468949 -165.93261719 131.46435547 C-167.90134406 131.8081462 -169.8662584 132.17501833 -171.82519531 132.57080078 C-180.87149169 134.31190942 -189.82071503 134.39685434 -199 134.375 C-199.81815186 134.37478851 -200.63630371 134.37457703 -201.47924805 134.37435913 C-214.00038324 134.3420487 -225.95701086 133.73600827 -238 130 C-239.2065625 129.62617188 -240.413125 129.25234375 -241.65625 128.8671875 C-257.0247912 123.44510871 -269.26980177 115.26910424 -276.80859375 100.578125 C-279.98938769 93.69509549 -280.36622935 88.30152838 -280.375 80.75 C-280.39949219 79.65558594 -280.42398437 78.56117188 -280.44921875 77.43359375 C-280.47454565 70.38427409 -279.49005389 65.15752284 -276 59 C-275.67 59.66 -275.34 60.32 -275 61 C-275.33 61.99 -275.66 62.98 -276 64 C-276.82703318 72.68384834 -274.42864386 79.73602325 -269.671875 87.0390625 C-259.00881935 99.32963717 -239.2624352 103.2521873 -224 105 C-218.49653348 105.29482241 -213.01016063 105.33917558 -207.5 105.3125 C-206.75632172 105.31134186 -206.01264343 105.31018372 -205.24642944 105.30899048 C-192.9444519 105.2712326 -181.09530753 104.34210658 -169 102 C-167.75992188 101.7834375 -166.51984375 101.566875 -165.2421875 101.34375 C-161.47322944 100.64794236 -157.73664348 99.8486614 -154 99 C-153.15163574 98.81099121 -152.30327148 98.62198242 -151.42919922 98.42724609 C-105.52219812 88.0580591 -58.37185425 67.74999895 -24.0390625 34.765625 C-22 33 -22 33 -20 33 C-19.61714844 32.11441406 -19.61714844 32.11441406 -19.2265625 31.2109375 C-17.87840494 28.78081909 -16.45398825 27.4555036 -14.375 25.625 C-7.22912325 18.67472206 -2.42740623 9.62380755 0 0 Z " fill="#176A97" transform="translate(280,87)"/>
<path d="M0 0 C0.33 0 0.66 0 1 0 C1.68203075 28.70212742 -12.88256973 55.67888834 -31.98828125 76.2734375 C-44.66753142 89.5315454 -60.11486103 98.9982283 -77 106 C-77.79921875 106.34675781 -78.5984375 106.69351563 -79.421875 107.05078125 C-108.2310174 118.63706678 -142.41314421 117.82870345 -170.86328125 105.92578125 C-179.44281156 102.04010098 -187.72097107 97.48103487 -196 93 C-196 92.34 -196 91.68 -196 91 C-195.35788574 90.98541748 -194.71577148 90.97083496 -194.05419922 90.95581055 C-178.84631029 90.57365528 -164.00856972 89.49803553 -149 87 C-147.86280518 86.82525146 -147.86280518 86.82525146 -146.70263672 86.64697266 C-123.69639288 83.03745133 -100.54149505 73.75880691 -80 63 C-78.68878174 62.32565918 -78.68878174 62.32565918 -77.35107422 61.63769531 C-64.51889222 55.00956704 -52.50582532 47.73489007 -41 39 C-40.03707031 38.26910156 -39.07414063 37.53820312 -38.08203125 36.78515625 C-30.282885 30.67884795 -22.9749871 24.02696167 -16 17 C-14.92530376 15.93536489 -13.84973528 14.87160976 -12.7734375 13.80859375 C-11.64059335 12.68492774 -10.50778129 11.56122938 -9.375 10.4375 C-8.80265625 9.87353516 -8.2303125 9.30957031 -7.640625 8.72851562 C-4.84170703 5.94587043 -2.3296455 3.19739936 0 0 Z " fill="#177499" transform="translate(273,140)"/>
<path d="M0 0 C1.71413086 -0.01836914 1.71413086 -0.01836914 3.46289062 -0.03710938 C26.14073653 -0.07556813 46.43039696 6.70471561 65.8125 18.1875 C65.1525 18.5175 64.4925 18.8475 63.8125 19.1875 C61.484375 18.33203125 61.484375 18.33203125 58.5625 17 C44.74304416 11.04191126 30.47825019 7.79015374 15.4375 7.9375 C13.92434204 7.94765137 13.92434204 7.94765137 12.38061523 7.95800781 C5.03076294 8.05976863 -1.99624563 8.59450062 -9.1875 10.1875 C-10.43273437 10.44402344 -11.67796875 10.70054688 -12.9609375 10.96484375 C-43.02495849 17.54306715 -69.98351054 36.81766461 -86.8125 62.5 C-87.95778119 64.38365072 -89.08157685 66.28047535 -90.1875 68.1875 C-90.84621094 69.31800781 -91.50492188 70.44851562 -92.18359375 71.61328125 C-108.34135091 100.13686392 -110.55905748 131.22662943 -102.140625 162.625 C-101.02621672 166.79032931 -100.0907566 170.97230252 -99.1875 175.1875 C-106.49402085 174.76596995 -112.64714478 172.42279572 -119.1875 169.1875 C-120.2496875 168.713125 -121.311875 168.23875 -122.40625 167.75 C-126.75783545 163.74067408 -126.84305114 159.20216029 -127.5625 153.5 C-127.72113525 152.34894775 -127.87977051 151.19789551 -128.04321289 150.01196289 C-132.59787256 113.98472767 -125.57947329 79.31776026 -103.1875 50.1875 C-99.75891601 45.95263639 -96.04875247 42.02752221 -92.1875 38.1875 C-91.72118164 37.71860352 -91.25486328 37.24970703 -90.77441406 36.76660156 C-66.50266828 12.62812549 -34.00601232 0.01886079 0 0 Z " fill="#135EAD" transform="translate(148.1875,3.8125)"/>
<path d="M0 0 C13.2 0 26.4 0 40 0 C40 27.06 40 54.12 40 82 C4.45454545 99 4.45454545 99 0 99 C0 66.33 0 33.66 0 0 Z " fill="#139DA3" transform="translate(163,65)"/>
<path d="M0 0 C13.2 0 26.4 0 40 0 C40.32087047 17.43841899 40.32087047 17.43841899 40.390625 24.89648438 C40.43837304 29.9774901 40.49472956 35.05733792 40.60351562 40.13745117 C40.69071621 44.23540822 40.73832966 48.33212333 40.75901794 52.43093681 C40.7737518 53.99114976 40.80252653 55.55129788 40.84584045 57.11097908 C41.17173436 69.33704249 41.17173436 69.33704249 38.25805664 73.47221375 C36.25497191 75.23722248 34.27738638 76.61855043 32 78 C30.32961728 79.55852674 28.66256775 81.12063928 27 82.6875 C22.39377741 86.88729119 17.59729833 90.74185436 12.625 94.5 C11.94695312 95.01651123 11.26890625 95.53302246 10.5703125 96.06518555 C9.920625 96.54898682 9.2709375 97.03278809 8.6015625 97.53125 C8.02744629 97.95986328 7.45333008 98.38847656 6.86181641 98.83007812 C5 100 5 100 0 102 C0 68.34 0 34.68 0 0 Z " fill="#1CBB98" transform="translate(217,36)"/>
<path d="M0 0 C9.25125738 -0.52048816 19.22045197 2.39586637 26.375 8.35546875 C33.75374591 16.25526505 36.6119463 25.24972613 36.39453125 35.87890625 C35.54062441 45.16240627 30.9772612 52.06786601 24.08984375 58.19140625 C21.52173571 59.8890507 18.97521488 61.13270544 16.08984375 62.19140625 C14.69378906 62.72507812 14.69378906 62.72507812 13.26953125 63.26953125 C4.56251547 65.79392403 -5.67931543 65.00569834 -13.91015625 61.19140625 C-21.03153126 56.97984038 -27.8211987 50.73616183 -30.4375 42.68359375 C-32.19596135 33.41170663 -32.15445419 23.29377916 -26.91015625 15.19140625 C-20.7110254 7.52318155 -14.4448988 2.82509189 -4.91015625 0.44140625 C-3.27251374 0.30493604 -1.63513031 0.16384741 0 0 Z " fill="#1B325B" transform="translate(483.91015625,111.80859375)"/>
<path d="M0 0 C13.2 0 26.4 0 40 0 C40 24.75 40 49.5 40 75 C9 83 9 83 0 84 C0 56.28 0 28.56 0 0 Z " fill="#1280A4" transform="translate(110,94)"/>
<path d="M0 0 C22.11 0 44.22 0 67 0 C67 12 67 12 65 14.625 C64.01 15.40875 63.02 16.1925 62 17 C60.75885592 18.45174545 59.55448756 19.93523086 58.375 21.4375 C57.68792969 22.30761719 57.00085938 23.17773438 56.29296875 24.07421875 C55.53628906 25.03972656 54.77960937 26.00523438 54 27 C53.1421528 28.09002143 52.28407041 29.17985779 51.42578125 30.26953125 C49.56800547 32.62970752 47.71277294 34.99185324 45.859375 37.35546875 C43.97682142 39.75617402 42.091454 42.15461623 40.203125 44.55078125 C35.56975515 50.43194164 30.95289615 56.32551748 26.375 62.25 C25.94888428 62.79922119 25.52276855 63.34844238 25.08374023 63.91430664 C22.83970451 66.82650714 22.83970451 66.82650714 21 70 C36.51 70 52.02 70 68 70 C68 73.96 68 77.92 68 82 C45.56 82 23.12 82 0 82 C0 71 0 71 1.50390625 68.2734375 C2.18324219 67.64695312 2.86257813 67.02046875 3.5625 66.375 C4.29597656 65.64925781 5.02945313 64.92351562 5.78515625 64.17578125 C6.51605469 63.45777344 7.24695313 62.73976562 8 62 C9.19407411 60.54286852 10.36168948 59.0635977 11.5 57.5625 C13.8826705 54.45000251 16.2939826 51.36754603 18.75 48.3125 C21.94351188 44.33289289 25.10238506 40.32842251 28.25 36.3125 C34.124509 28.84165703 40.06298586 21.42126767 46 14 C30.82 13.67 15.64 13.34 0 13 C0 8.71 0 4.42 0 0 Z " fill="#18B6A7" transform="translate(670,93)"/>
<path d="M0 0 C5.74795207 4.72609392 10.81078004 10.01210954 12.8125 17.3125 C12.8125 21.9325 12.8125 26.5525 12.8125 31.3125 C-3.0275 31.3125 -18.8675 31.3125 -35.1875 31.3125 C-31.1386749 40.63773443 -31.1386749 40.63773443 -23.77734375 45.53125 C-17.97273506 47.28226318 -12.18798901 47.55058724 -6.52734375 45.21484375 C-4.99796061 44.36187071 -3.49315916 43.46200906 -2.02734375 42.50390625 C-0.1875 41.3125 -0.1875 41.3125 2.8125 40.3125 C3.98510611 41.59877711 5.1504283 42.89169783 6.3125 44.1875 C6.9621875 44.90679687 7.611875 45.62609375 8.28125 46.3671875 C9.8125 48.3125 9.8125 48.3125 9.8125 50.3125 C1.14508993 57.66852888 -7.56216945 59.88287991 -18.75390625 59.59375 C-29.2233778 58.73618236 -36.47311532 54.55795746 -43.5 46.875 C-49.50918153 39.47782818 -51.15292461 30.65400287 -50.1875 21.3125 C-47.81677246 12.33082939 -43.22651278 4.97707565 -35.375 -0.0625 C-23.79491876 -6.45151034 -11.617805 -6.15060264 0 0 Z " fill="#16B6A6" transform="translate(794.1875,116.6875)"/>
<path d="M0 0 C-0.66498383 4.38889325 -2.18757677 7.9811485 -4 12 C-4.56847656 11.80664062 -5.13695312 11.61328125 -5.72265625 11.4140625 C-7.34106921 10.86828718 -8.96238574 10.33107447 -10.5859375 9.80078125 C-12.46649636 9.17697127 -14.33083772 8.50419771 -16.1875 7.8125 C-23.51194269 6.2515532 -31.79587157 5.52084347 -38.75 8.75 C-41.89673184 10.92850666 -42.69523832 11.61537069 -44 15 C-43.85577102 18.46149562 -43.52107099 20.36460628 -41.30859375 23.0625 C-38.63279922 25.30817527 -36.54133155 26.05502105 -33.1875 27 C-32.0428125 27.33128906 -30.898125 27.66257813 -29.71875 28.00390625 C-27.18006324 28.68391163 -24.64561882 29.34019395 -22.09375 29.96484375 C-11.76041384 32.515681 -4.32239949 35.18695828 2 44 C4.04628787 50.1388636 4.10571965 57.50016765 1.375 63.4375 C-2.5505506 70.06701378 -9.51086452 74.39021606 -16.82397461 76.53491211 C-30.7370721 79.5085967 -46.6759692 77.63288095 -58.8125 70.25 C-59.864375 69.5075 -60.91625 68.765 -62 68 C-59.525 62.06 -59.525 62.06 -57 56 C-53.83392696 57.26642922 -51.21768492 58.38670859 -48.3125 60 C-39.66329952 64.35711603 -29.42276569 65.49877403 -20.125 62.75 C-17.53388557 61.77776684 -16.0358844 61.03153478 -13.9375 59.1875 C-12.65824684 56.20257597 -12.53107634 54.21547649 -13 51 C-15.74179038 47.67203375 -18.16938014 46.2766185 -22.25 45 C-23.30316406 44.66742188 -24.35632813 44.33484375 -25.44140625 43.9921875 C-27.97194367 43.286637 -30.46848612 42.64652752 -33.02734375 42.0703125 C-42.38155595 39.95945488 -49.52172356 37.47827644 -56.4375 30.5625 C-59.63583529 25.31723013 -60.53268231 20.07257839 -60 14 C-57.91969719 6.05840606 -54.0606206 1.22278276 -47.01171875 -2.93359375 C-33.18412457 -10.26356115 -12.99096329 -8.6606422 0 0 Z " fill="#1B315B" transform="translate(394,99)"/>
<path d="M0 0 C4.62 0 9.24 0 14 0 C14.33 16.5 14.66 33 15 50 C25.94203366 39.81620806 25.94203366 39.81620806 36.375 29.125 C41.59553797 24.21078573 45.17539747 23.05878791 52.3125 23.25 C54.90315189 23.40426429 57.42331488 23.66672815 60 24 C60 26 60 26 58.11328125 28.01171875 C57.07585487 29.00816039 56.03802792 30.00418502 55 31 C53.44906386 32.5454131 51.9011801 34.09389235 50.35546875 35.64453125 C45.5703125 40.4296875 40.78515625 45.21484375 36 50 C38.8179415 54.34132984 41.83814582 58.44997441 45.0625 62.5 C45.53276611 63.09586914 46.00303223 63.69173828 46.48754883 64.30566406 C49.0342123 67.53129713 51.59536096 70.74502462 54.1640625 73.953125 C54.6705835 74.58927734 55.17710449 75.22542969 55.69897461 75.88085938 C56.67738831 77.10945299 57.65986431 78.33482448 58.64672852 79.55664062 C62 83.77477748 62 83.77477748 62 86 C46.15359879 87.67606167 46.15359879 87.67606167 41.3046875 83.90234375 C39.3058928 81.02553599 37.65706945 78.08463867 36 75 C34.62423081 73.15626471 33.20832377 71.34165499 31.75 69.5625 C31.12609375 68.78003906 30.5021875 67.99757813 29.859375 67.19140625 C28.00627637 65.00739716 26.05385792 62.99478679 24 61 C23.44570313 61.5053125 22.89140625 62.010625 22.3203125 62.53125 C21.23363281 63.50578125 21.23363281 63.50578125 20.125 64.5 C19.40570312 65.1496875 18.68640625 65.799375 17.9453125 66.46875 C16 68 16 68 14 68 C14 73.94 14 79.88 14 86 C9.38 86 4.76 86 0 86 C0 57.62 0 29.24 0 0 Z " fill="#172F57" transform="translate(601,89)"/>
<path d="M0 0 C5.84930773 4.57717683 8.8274512 10.47775198 9.95703125 17.74609375 C10.0914171 20.89901991 10.07338438 24.04783971 10.0546875 27.203125 C10.05327255 28.1060881 10.0518576 29.00905121 10.05039978 29.93937683 C10.04481948 32.81248338 10.03227059 35.68551091 10.01953125 38.55859375 C10.0145137 40.51106658 10.00995124 42.46354064 10.00585938 44.41601562 C9.9948565 49.1927386 9.97760543 53.96940279 9.95703125 58.74609375 C5.00703125 58.74609375 0.05703125 58.74609375 -5.04296875 58.74609375 C-5.05231445 57.53550293 -5.06166016 56.32491211 -5.07128906 55.07763672 C-5.11126823 50.57091965 -5.17704915 46.06487953 -5.25048828 41.55859375 C-5.27865196 39.6110913 -5.29988935 37.66347553 -5.31396484 35.71582031 C-5.33545821 32.91021907 -5.38214073 30.10597375 -5.43359375 27.30078125 C-5.43482239 26.43492401 -5.43605103 25.56906677 -5.43731689 24.67697144 C-5.56772978 19.25111603 -6.3881578 16.02458971 -10.04296875 11.74609375 C-14.97740944 9.16138672 -20.58801008 9.05311854 -26.04296875 9.74609375 C-31.04200458 11.96788745 -32.9315109 14.77274264 -35.20471191 19.50292969 C-36.5843685 23.19487222 -36.64609359 26.71402497 -36.65234375 30.62109375 C-36.66888 31.43102783 -36.68541626 32.24096191 -36.70245361 33.07543945 C-36.7505805 35.63240404 -36.77222461 38.18877558 -36.79296875 40.74609375 C-36.82115815 42.49221678 -36.8510897 44.23831259 -36.8828125 45.984375 C-36.95632909 50.23823232 -37.00611825 54.49176723 -37.04296875 58.74609375 C-41.66296875 58.74609375 -46.28296875 58.74609375 -51.04296875 58.74609375 C-51.04296875 38.28609375 -51.04296875 17.82609375 -51.04296875 -3.25390625 C-46.75296875 -3.25390625 -42.46296875 -3.25390625 -38.04296875 -3.25390625 C-38.04296875 -0.61390625 -38.04296875 2.02609375 -38.04296875 4.74609375 C-37.38296875 4.74609375 -36.72296875 4.74609375 -36.04296875 4.74609375 C-35.71296875 3.75609375 -35.38296875 2.76609375 -35.04296875 1.74609375 C-33.1171875 0.39453125 -33.1171875 0.39453125 -30.73046875 -0.87890625 C-29.95058594 -1.30429688 -29.17070313 -1.7296875 -28.3671875 -2.16796875 C-19.52494047 -6.29930434 -8.23276787 -5.05299902 0 0 Z " fill="#18B8A7" transform="translate(873.04296875,116.25390625)"/>
<path d="M0 0 C13.2 0 26.4 0 40 0 C40 17.16 40 34.32 40 52 C35.80719314 53.04820172 32.01319664 53.12657952 27.734375 53.09765625 C27.03070801 53.09664917 26.32704102 53.09564209 25.60205078 53.09460449 C22.98468384 53.08939005 20.36734021 53.07542881 17.75 53.0625 C11.8925 53.041875 6.035 53.02125 0 53 C0 35.51 0 18.02 0 0 Z " fill="#155F99" transform="translate(57,128)"/>
<path d="M0 0 C2.19698872 1.90655525 4.05745894 3.81464131 6 6 C6 6.66 6 7.32 6 8 C3.91796875 9.54296875 3.91796875 9.54296875 1.1875 11.1875 C0.29417969 11.73792969 -0.59914063 12.28835937 -1.51953125 12.85546875 C-4 14 -4 14 -7 13 C-8.33333333 11.66666667 -9.66666667 10.33333333 -11 9 C-15.70118417 6.09120631 -20.64945269 6.51005163 -26 7 C-31.19973734 8.73324578 -33.86183594 11.55426758 -37 16 C-39.77882094 21.68395192 -39.12025438 27.05979493 -37.43359375 32.9921875 C-35.84267249 37.22858354 -33.75897241 39.55666794 -30 42 C-24.81381682 43.72872773 -19.40813733 43.49285981 -14 43 C-10.44678747 41.38492402 -10.44678747 41.38492402 -8 39 C-6.68 38.01 -5.36 37.02 -4 36 C-0.7 38.31 2.6 40.62 6 43 C1.80689728 50.21213667 -4.01141409 54.419449 -12 57 C-23.53464443 58.31722791 -33.64338236 56.87039416 -43.375 50.25 C-49.41233994 45.3384755 -52.20731267 39.48388247 -54 32 C-54.91459562 22.55559677 -55.01179756 13.80135591 -49 6 C-36.03821698 -8.14460733 -15.80994433 -12.16404522 0 0 Z " fill="#1B325A" transform="translate(583,119)"/>
<path d="M0 0 C4.95 0 9.9 0 15 0 C15 4.95 15 9.9 15 15 C20.61 15 26.22 15 32 15 C32 18.63 32 22.26 32 26 C26.06 26 20.12 26 14 26 C14.07424095 30.30597498 14.15727359 34.60996224 14.26245117 38.91503906 C14.29557135 40.37749708 14.32364305 41.84007895 14.34643555 43.30273438 C14.38022175 45.41329403 14.4325438 47.52273186 14.48828125 49.6328125 C14.51446533 50.90012207 14.54064941 52.16743164 14.56762695 53.47314453 C15.0333691 57.2721909 16.00950108 59.74869924 18 63 C22.27999354 65.13999677 27.49048355 64.09321611 32 63 C34.95226131 69.14070352 34.95226131 69.14070352 35.125 72.25 C33.14536921 75.32942568 30.41104451 76.21370616 27 77 C19.32420465 77.80951844 12.33338518 77.81650033 6 73 C1.20619691 68.08004419 -0.22798833 63.63103259 -0.22659302 56.7922821 C-0.21627045 56.0087587 -0.20594788 55.22523529 -0.1953125 54.41796875 C-0.1924826 53.60378983 -0.18965271 52.7896109 -0.18673706 51.95075989 C-0.17558584 49.362854 -0.15049083 46.77530042 -0.125 44.1875 C-0.11496365 42.42773939 -0.10583894 40.66797333 -0.09765625 38.90820312 C-0.0756631 34.60533402 -0.04116836 30.30272664 0 26 C-3.3 26 -6.6 26 -10 26 C-10 22.37 -10 18.74 -10 15 C-6.7 15 -3.4 15 0 15 C0 10.05 0 5.1 0 0 Z " fill="#193059" transform="translate(413,99)"/>
<path d="M0 0 C4.92542269 3.79961179 6.95309697 7.61835177 8.1875 13.6875 C8.79156926 20.03022721 7.87794893 24.42185945 4.1875 29.6875 C-0.29681311 34.30908801 -3.6767017 35.86149524 -10.0625 36 C-15.54020571 35.94570556 -18.70809965 35.58668033 -22.8125 31.6875 C-28.30353799 25.9256711 -29.17457946 21.5043187 -29.08984375 13.69921875 C-28.55871348 7.93159289 -26.08567697 4.96067697 -22 0.875 C-14.4228671 -4.32499317 -8.00862356 -3.73735766 0 0 Z " fill="#FAFAFB" transform="translate(496.8125,127.3125)"/>
<path d="M0 0 C5.16955933 2.81539198 7.80574574 6.60625828 9.6640625 12.14453125 C9.6640625 12.80453125 9.6640625 13.46453125 9.6640625 14.14453125 C-1.8859375 14.14453125 -13.4359375 14.14453125 -25.3359375 14.14453125 C-21.82555586 3.61338633 -21.82555586 3.61338633 -15.93359375 0.18359375 C-10.56722306 -1.96295453 -5.42502289 -1.98675588 0 0 Z " fill="#F6FBFA" transform="translate(784.3359375,124.85546875)"/>
<path d="M0 0 C7.29123852 1.13071122 13.52585582 3.24131342 20.1875 6.375 C21.03763672 6.76171875 21.88777344 7.1484375 22.76367188 7.546875 C27.66379894 9.80206861 32.35997384 12.24988977 37 15 C36.34 15.33 35.68 15.66 35 16 C32.671875 15.14453125 32.671875 15.14453125 29.75 13.8125 C19.53127114 9.40682049 8.98041135 6.70308421 -2 5 C-0.68 4.67 0.64 4.34 2 4 C1.34 2.68 0.68 1.36 0 0 Z " fill="#2182C8" transform="translate(177,7)"/>
<path d="M0 0 C0 6.22995535 -7.27136539 11.33126953 -11.4375 15.5625 C-23.20986411 27.15405989 -23.20986411 27.15405989 -28 28 C-25.22610075 24.29064059 -22.34506968 21.51733114 -18.6875 18.6875 C-14.52201881 15.35289936 -10.97119553 11.96241321 -7.5703125 7.86328125 C-5.21280717 5.06594284 -2.61726421 2.5534285 0 0 Z " fill="#26BDAB" transform="translate(268,146)"/>
<path d="M0 0 C1.49574876 2.99149753 0.64805018 5.29881021 0.125 8.5625 C-0.05804688 9.73941406 -0.24109375 10.91632813 -0.4296875 12.12890625 C-1 15 -1 15 -2 16 C-2.23527773 18.34987262 -2.41386417 20.70556039 -2.5625 23.0625 C-2.64628906 24.35285156 -2.73007812 25.64320313 -2.81640625 26.97265625 C-2.87699219 27.97167969 -2.93757812 28.97070312 -3 30 C-3.33 30 -3.66 30 -4 30 C-4.117791 26.68780768 -4.18777155 23.37616508 -4.25 20.0625 C-4.28351562 19.13630859 -4.31703125 18.21011719 -4.3515625 17.25585938 C-4.44482059 10.61122044 -3.19477792 5.82677788 0 0 Z " fill="#1F3D99" transform="translate(4,146)"/>
<path d="M0 0 C3.95829688 -0.22822613 6.67851541 0.44949991 10.3125 2 C11.19550781 2.37125 12.07851563 2.7425 12.98828125 3.125 C13.65214844 3.41375 14.31601562 3.7025 15 4 C15 3.34 15 2.68 15 2 C15.99 2.33 16.98 2.66 18 3 C18 3.99 18 4.98 18 6 C11.38914524 5.51030705 6.05022986 3.66557258 0 1 C0 0.67 0 0.34 0 0 Z " fill="#264293" transform="translate(31,173)"/>
<path d="M0 0 C7.92 0 15.84 0 24 0 C24 0.33 24 0.66 24 1 C18.06 1 12.12 1 6 1 C6.33 1.99 6.66 2.98 7 4 C4.97954558 3.39816251 2.97888961 2.72693904 1 2 C0.67 1.34 0.34 0.68 0 0 Z " fill="#152F77" transform="translate(78,232)"/>
<path d="M0 0 C6.16356805 1.6658292 11.48259656 4.87805286 17 8 C16.01 8.495 16.01 8.495 15 9 C12.99053701 8.28873684 11.0144821 7.48150609 9.0625 6.625 C6.05013419 5.31463917 3.11688385 4.03896128 0 3 C0 2.01 0 1.02 0 0 Z " fill="#367EC3" transform="translate(197,14)"/>
<path d="M0 0 C0 0.66 0 1.32 0 2 C-1.79323253 1.71812064 -3.58457126 1.4241719 -5.375 1.125 C-6.37273437 0.96257813 -7.37046875 0.80015625 -8.3984375 0.6328125 C-11 0 -11 0 -13 -2 C-8.14228642 -3.68151624 -4.2079058 -2.80527053 0 0 Z " fill="#1C78BE" transform="translate(197,14)"/>
<path d="M0 0 C0.33 0.99 0.66 1.98 1 3 C-3.455 6.96 -3.455 6.96 -8 11 C-8.66 10.67 -9.32 10.34 -10 10 C-8.88121617 8.82737096 -7.75476949 7.66204862 -6.625 6.5 C-5.68527344 5.52546875 -5.68527344 5.52546875 -4.7265625 4.53125 C-3 3 -3 3 -1 3 C-0.67 2.01 -0.34 1.02 0 0 Z " fill="#2AB6A1" transform="translate(261,117)"/>
<path d="M0 0 C0.33 0 0.66 0 1 0 C1 3.3 1 6.6 1 10 C-0.32 10.33 -1.64 10.66 -3 11 C-2.01 7.37 -1.02 3.74 0 0 Z " fill="#1DCA9E" transform="translate(280,87)"/>
<path d="M0 0 C0.66 0.33 1.32 0.66 2 1 C-0.31 3.31 -2.62 5.62 -5 8 C-5.99 7.67 -6.98 7.34 -8 7 C-5.36 4.69 -2.72 2.38 0 0 Z " fill="#19AAA5" transform="translate(248,166)"/>
<path d="M0 0 C0.66 0.99 1.32 1.98 2 3 C0.02 5.31 -1.96 7.62 -4 10 C-4 5.75354935 -2.18249194 3.61475228 0 0 Z " fill="#29C19F" transform="translate(276,98)"/>
<path d="M0 0 C0.66 0.33 1.32 0.66 2 1 C0.02 2.98 -1.96 4.96 -4 7 C-4.99 6.67 -5.98 6.34 -7 6 C-4.69 4.02 -2.38 2.04 0 0 Z " fill="#1FB6A6" transform="translate(256,159)"/>
<path d="M0 0 C0.99 0.33 1.98 0.66 3 1 C-0.465 3.97 -0.465 3.97 -4 7 C-3.04065919 3.16263678 -2.76390737 2.40339772 0 0 Z " fill="#142B54" transform="translate(539,120)"/>
<path d="M0 0 C0.66 0.33 1.32 0.66 2 1 C-1.465 3.97 -1.465 3.97 -5 7 C-5.66 6.67 -6.32 6.34 -7 6 C-4.69 4.02 -2.38 2.04 0 0 Z " fill="#293A5D" transform="translate(637,120)"/>
<path d="M0 0 C1.65 0.33 3.3 0.66 5 1 C4.67 1.66 4.34 2.32 4 3 C1.67843403 3.40729228 -0.6568787 3.74438677 -3 4 C-2.01 2.68 -1.02 1.36 0 0 Z " fill="#2A88CB" transform="translate(184,9)"/>
</svg>
